<?xml version="1.0" encoding="UTF-8" standalone="no"?>
<!-- Created with Inkscape (http://www.inkscape.org/) -->

<svg
   xmlns:dc="http://purl.org/dc/elements/1.1/"
   xmlns:cc="http://creativecommons.org/ns#"
   xmlns:rdf="http://www.w3.org/1999/02/22-rdf-syntax-ns#"
   xmlns:svg="http://www.w3.org/2000/svg"
   xmlns="http://www.w3.org/2000/svg"
   xmlns:sodipodi="http://sodipodi.sourceforge.net/DTD/sodipodi-0.dtd"
   xmlns:inkscape="http://www.inkscape.org/namespaces/inkscape"
   width="620"
   height="200"
   viewBox="0 0 164.04167 52.916669"
   version="1.1"
   id="svg8"
   sodipodi:docname="logo_and_title_white.svg"
   inkscape:version="0.92.3 (2405546, 2018-03-11)"
   inkscape:export-filename="C:\Users\g.noczinski\Dropbox\N3xtw0rk\screen_wallpaper_purple_2160.png"
   inkscape:export-xdpi="192"
   inkscape:export-ydpi="192">
  <defs
     id="defs2" />
  <sodipodi:namedview
     id="base"
     pagecolor="#5e1945"
     bordercolor="#666666"
     borderopacity="1.0"
     inkscape:pageopacity="1"
     inkscape:pageshadow="2"
     inkscape:zoom="0.5"
     inkscape:cx="935.90198"
     inkscape:cy="561.08056"
     inkscape:document-units="px"
     inkscape:current-layer="layer1"
     showgrid="false"
     units="px"
     objecttolerance="20"
     showborder="true"
     borderlayer="true"
     inkscape:showpageshadow="false"
     inkscape:window-width="2560"
     inkscape:window-height="1361"
     inkscape:window-x="-9"
     inkscape:window-y="-9"
     inkscape:window-maximized="1">
    <inkscape:grid
       type="xygrid"
       id="grid92" />
  </sodipodi:namedview>
  <metadata
     id="metadata5">
    <rdf:RDF>
      <cc:Work
         rdf:about="">
        <dc:format>image/svg+xml</dc:format>
        <dc:type
           rdf:resource="http://purl.org/dc/dcmitype/StillImage" />
        <dc:title></dc:title>
      </cc:Work>
    </rdf:RDF>
  </metadata>
  <g
     inkscape:label="Layer 1"
     inkscape:groupmode="layer"
     id="layer1"
     transform="translate(0,-244.08334)">
    <g
       id="g4708"
       transform="translate(-171.97916,116.41666)">
      <path
         id="path12"
         d="m 223.97462,145.97667 v 17.45285 h -3.43959 l -7.92923,-11.21998 v 11.21998 h -3.8654 v -17.45285 h 3.54156 l 7.82863,11.21999 v -11.21999 z m 0,0"
         style="fill:#ffffff;fill-opacity:1;fill-rule:nonzero;stroke:none;stroke-width:0.35277778"
         inkscape:connector-curvature="0" />
      <path
         id="path14"
         d="m 240.05632,160.98626 c 0,3.24115 -2.64308,5.46117 -6.30866,5.46117 -3.8654,0 -6.6821,-2.46945 -6.6821,-5.88423 h 3.58978 c 0,1.7446 1.29674,3.01653 3.09232,3.01653 1.71979,0 2.8925,-1.09692 2.8925,-2.59347 0,-1.49517 -1.22232,-2.54386 -3.06751,-2.54386 h -2.14423 l -1.0225,-2.04363 4.91271,-4.66328 h -7.75423 v -3.01652 h 11.99307 v 2.7671 l -5.08634,4.36424 c 3.38998,0.29904 5.58519,2.29306 5.58519,5.13595"
         style="fill:#ffffff;fill-opacity:1;fill-rule:nonzero;stroke:none;stroke-width:0.35277778"
         inkscape:connector-curvature="0" />
      <path
         id="path16"
         d="m 255.43798,163.42952 h -4.16305 l -2.84289,-4.08863 -2.89251,4.08863 h -3.7648 l 4.58749,-6.33208 -4.48689,-6.33346 h 4.16306 l 2.7671,4.21266 2.76847,-4.21266 h 3.76481 l -4.38906,6.20806 z m 0,0"
         style="fill:#ffffff;fill-opacity:1;fill-rule:nonzero;stroke:none;stroke-width:0.35277778"
         inkscape:connector-curvature="0" />
      <path
         id="path18"
         d="m 261.72046,153.50627 v 5.21036 c 0,1.29674 0.77308,1.9954 2.04501,1.9954 0.52365,0 1.17133,-0.0744 2.06981,-0.54846 v 2.96692 c -0.79788,0.42444 -1.79558,0.54846 -2.61827,0.54846 -3.0179,0 -5.01192,-1.77078 -5.01192,-4.46347 v -5.70921 h -2.26826 v -2.74229 h 0.0496 c 1.52136,0 2.21865,-0.62426 2.21865,-2.09462 v -1.69637 h 3.51537 v 3.79099 h 4.36425 v 2.74229 z m 0,0"
         style="fill:#ffffff;fill-opacity:1;fill-rule:nonzero;stroke:none;stroke-width:0.35277778"
         inkscape:connector-curvature="0" />
      <path
         id="path20"
         d="m 285.95464,150.76398 -3.81441,12.66554 h -3.36517 l -2.41983,-8.32748 -2.39228,8.32748 h -3.39135 l -3.81579,-12.66554 h 3.56636 l 2.21865,8.32748 2.41845,-8.32748 h 2.79329 l 2.41845,8.32748 2.24345,-8.32748 z m 0,0"
         style="fill:#ffffff;fill-opacity:1;fill-rule:nonzero;stroke:none;stroke-width:0.35277778"
         inkscape:connector-curvature="0" />
      <path
         id="path22"
         d="m 290.66615,156.05013 c 0,2.94211 1.49655,4.78593 3.66559,4.78593 2.16903,0 3.66558,-1.84382 3.66558,-4.78593 0,-2.94349 -1.49655,-4.83829 -3.66558,-4.83829 -2.16904,0 -3.66559,1.8948 -3.66559,4.83829 m 10.92095,0 c 0,4.51307 -3.04132,7.65362 -7.25536,7.65362 -4.18924,0 -7.25538,-3.14055 -7.25538,-7.65362 0,-4.51445 3.06614,-7.67981 7.25538,-7.67981 4.21404,0 7.25536,3.16536 7.25536,7.67981"
         style="fill:#ffffff;fill-opacity:1;fill-rule:nonzero;stroke:none;stroke-width:0.35277778"
         inkscape:connector-curvature="0" />
      <path
         id="path24"
         d="m 313.25496,150.56416 v 3.71519 c -4.06522,-0.42444 -5.46117,1.02251 -5.46117,4.38767 v 4.7625 h -3.51538 v -12.66554 h 3.51538 v 3.34036 c 0.82269,-2.51768 2.66788,-3.54018 5.46117,-3.54018"
         style="fill:#ffffff;fill-opacity:1;fill-rule:nonzero;stroke:none;stroke-width:0.35277778"
         inkscape:connector-curvature="0" />
      <path
         id="path26"
         d="m 321.40605,157.99454 h -2.36747 v 5.43498 h -3.51675 v -17.45285 h 3.51675 v 8.82633 h 2.34404 l 2.66651,-4.03902 h 4.06521 l -3.96462,5.5342 4.38906,7.13134 h -4.11482 z m 0,0"
         style="fill:#ffffff;fill-opacity:1;fill-rule:nonzero;stroke:none;stroke-width:0.35277778"
         inkscape:connector-curvature="0" />
      <path
         id="path28"
         d="m 201.30588,143.12964 h -7.28155 v -7.28155 h 7.28155 z m 0,0"
         style="fill:#b3119e;fill-opacity:1;fill-rule:nonzero;stroke:none;stroke-width:0.35277778"
         inkscape:connector-curvature="0" />
      <path
         id="path30"
         d="m 186.74278,172.40193 h -7.28156 V 165.119 h 7.28156 z m 0,0"
         style="fill:#e66833;fill-opacity:1;fill-rule:nonzero;stroke:none;stroke-width:0.35277778"
         inkscape:connector-curvature="0" />
      <path
         id="path32"
         d="m 186.74278,157.83882 h -7.28156 v -7.28155 h 7.28156 z m 0,0"
         style="fill:#e66833;fill-opacity:1;fill-rule:nonzero;stroke:none;stroke-width:0.35277778"
         inkscape:connector-curvature="0" />
      <path
         id="path34"
         d="m 194.02433,157.83882 h -7.28155 v -7.28155 h 7.28155 z m 0,0"
         style="fill:#d73f5e;fill-opacity:1;fill-rule:nonzero;stroke:none;stroke-width:0.35277778"
         inkscape:connector-curvature="0" />
      <path
         id="path36"
         d="m 201.30588,157.83882 h -7.28155 v -7.28155 h 7.28155 z m 0,0"
         style="fill:#c72385;fill-opacity:1;fill-rule:nonzero;stroke:none;stroke-width:0.35277778"
         inkscape:connector-curvature="0" />
      <path
         id="path38"
         d="m 201.30588,165.119 h -7.28155 v -7.28018 h 7.28155 z m 0,0"
         style="fill:#d73f5e;fill-opacity:1;fill-rule:nonzero;stroke:none;stroke-width:0.35277778"
         inkscape:connector-curvature="0" />
      <path
         id="path40"
         d="m 186.74278,150.55727 h -7.28156 v -7.28156 h 7.28156 z m 0,0"
         style="fill:#d73f5e;fill-opacity:1;fill-rule:nonzero;stroke:none;stroke-width:0.35277778"
         inkscape:connector-curvature="0" />
      <path
         id="path42"
         d="m 186.74278,150.55727 h 7.28155 l -7.28155,-7.28156 z m 0,0"
         style="fill:#b3119e;fill-opacity:1;fill-rule:nonzero;stroke:none;stroke-width:0.35277778"
         inkscape:connector-curvature="0" />
      <path
         id="path44"
         d="m 186.74278,157.83882 7.28155,7.28156 v -7.28156 z m 0,0"
         style="fill:#e66833;fill-opacity:1;fill-rule:nonzero;stroke:none;stroke-width:0.35277778"
         inkscape:connector-curvature="0" />
      <rect
         transform="rotate(31.193506)"
         y="-24.561554"
         x="331.89282"
         height="11.191913"
         width="1.4031651"
         id="rect4671"
         style="fill:#ffffff;fill-opacity:1;stroke-width:0.31862432" />
    </g>
  </g>
</svg>
